<?xml version="1.0" encoding="utf-8"?>
<!-- Generator: Adobe Illustrator 26.0.2, SVG Export Plug-In . SVG Version: 6.00 Build 0)  -->
<svg version="1.1" id="Warstwa_1" xmlns="http://www.w3.org/2000/svg" xmlns:xlink="http://www.w3.org/1999/xlink" x="0px" y="0px"
	 viewBox="0 0 512 512" style="enable-background:new 0 0 512 512;" xml:space="preserve">
<style type="text/css">
	.st0{fill:#FFFFFF;}
</style>
<path class="st0" d="M326.7,403.7c-22,7.9-45.9,12.3-70.7,12.3s-48.7-4.4-70.7-12.3c-1.2-0.1-0.6-0.2-0.8-0.3
	c-30.1-11-56.9-28.8-78.6-51.4C70,314.6,48,263.9,48,208C48,93.1,141.1,0,256,0s208,93.1,208,208c0,55.9-22.9,106.6-57.9,144
	c-1,1-2,2.1-3,3.1C381.7,376.4,355.7,393.2,326.7,403.7L326.7,403.7z M235.9,111.1v6.9c-5.6,1.2-11.8,2.9-15.9,5.1
	c-14.9,6.8-27.9,19.4-31.1,37.7c-1.8,10.2-0.8,20.1,3.4,29c4.2,8.8,10.7,15,17.3,19.5c11.6,7.9,26.9,12.5,38.6,16l2.2,0.6
	c14,4.3,23.4,7.4,29.3,11.7c2.5,1.8,3.4,3.2,3.7,4.1c0.4,0.8,1,2.6,0.3,6.6c-0.6,3.5-2.5,6.5-8,8.8c-6.1,2.6-16,3.9-28.8,1.9
	c-6-1-16.7-4.6-26.2-7.8c-2.2-0.8-4.4-1.5-6.4-2.2c-10.5-3.5-21.8,2.2-25.3,12.7c-3.5,10.5,2.2,21.8,12.7,24.4
	c1.2,1.3,2.7,1.8,4.4,2.4c7,2.7,20.3,6.9,29.8,9.1v6.4c0,11.1,9,20.1,19.2,20.1c12,0,21-9,21-20.1v-5.5c5.3-1,10.5-3.4,15.3-4.6
	c15.8-6.7,28.4-19.7,31.7-38.7c1.8-10.4,1-20.4-3-29.5c-3.9-9-10.2-15.6-16.9-20.4c-12.1-8.9-28.3-13.7-40.4-17.4l-1.7-0.2
	c-13.3-4.3-22.9-7.3-29-11.5c-2.6-1.8-3.4-3-3.6-3.5c-0.2-0.4-0.8-1.6-0.2-5c0.4-2,1.9-5.3,8.2-8.1c5.6-2.9,16.4-4.5,28.6-3.5
	c4.4,1.6,17.9,4.2,21.8,5.2c10.6,2.9,21.6-3.5,24.4-14.2c2.9-10.6-3.5-21.6-14.2-24.4c-4.4-1.2-14.4-3.2-21-4.4V112
	c0-11.1-9-20.1-20.1-20.1s-20.1,9-20.1,20.1V111.1z M48,352h16c19.5,25.9,44,47.7,72.2,64H64v32h384v-32h-72.2
	c27.3-16.3,52.8-38.1,72.2-64h16c26.5,0,48,21.5,48,48v64c0,26.5-21.5,48-48,48H48c-26.5,0-48-21.5-48-48v-64
	C0,373.5,21.5,352,48,352L48,352z"/>
</svg>
