<?xml version="1.0" encoding="utf-8"?>
<!-- Generator: Adobe Illustrator 26.0.2, SVG Export Plug-In . SVG Version: 6.00 Build 0)  -->
<svg version="1.1" id="Warstwa_1" xmlns="http://www.w3.org/2000/svg" xmlns:xlink="http://www.w3.org/1999/xlink" x="0px" y="0px"
	 viewBox="0 0 512 512" style="enable-background:new 0 0 512 512;" xml:space="preserve">
<style type="text/css">
	.st0{fill:#FFFFFF;}
</style>
<path class="st0" d="M177.1,228.6l30.8,91.4h96.5l29.6-91.4l-78-56.5L177.1,228.6z M255.1,0C114.6,0,0,114.6,0,256
	s114.6,256,256,256s255.1-114.6,255.1-255.1S397.4,0,255.1,0z M416.6,360.9l-85.4-1.3l-25.1,81.6c-16,4.3-32.7,6.8-50.1,6.8
	s-34.1-2.5-50.1-6.9l-25.1-81.5l-85.4,1.3c-18.1-27.7-29.2-60.3-30.9-95.3l69.8-49.2l-27.7-80.8c21.2-26.2,49.1-46.6,81.1-58.8
	L256,128l68.3-51.2c32,12.2,59.9,32.6,81.1,58.8l-27.6,80.8l69.8,49.1C445.8,300.6,434.8,333.2,416.6,360.9z"/>
</svg>
