<?xml version="1.0" encoding="utf-8"?>
<!-- Generator: Adobe Illustrator 26.0.2, SVG Export Plug-In . SVG Version: 6.00 Build 0)  -->
<svg version="1.1" id="Warstwa_1" xmlns="http://www.w3.org/2000/svg" xmlns:xlink="http://www.w3.org/1999/xlink" x="0px" y="0px"
	 viewBox="0 0 576 512" style="enable-background:new 0 0 576 512;" xml:space="preserve">
<style type="text/css">
	.st0{fill:#FFFFFF;}
</style>
<path class="st0" d="M574.1,280.4L528.7,98.6c-5.9-23.6-21.6-44-43-55.8c-21.5-11.8-46.1-14.1-70.2-6.4l-15.2,5.1
	c-8.4,2.8-12.9,11.9-10,20.2l5,15.1c2.8,8.4,11.9,12.9,20.2,10.1l13.1-4.4c10.9-3.6,23-3.6,33.2,1.8s17.5,14.5,20.4,25.8l38.4,153.9
	c-22.1-6.9-49.8-12.5-81.1-12.5c-34.9,0-73.1,7-114.9,26.8h-73.2c-40.9-19.8-80-26.8-114.9-26.8c-31.4,0-59,5.6-81.1,12.5
	l38.4-153.9c2.9-11.2,10.1-20.4,20.5-25.8c10.1-5.3,22.2-5.3,33.1-1.7l13.1,4.4c8.4,2.8,17.5-1.8,20.2-10.1l5-15.1
	c2.8-8.4-1.7-17.5-10.2-20.2l-15.2-5.1c-23.1-7.8-48.8-5.4-70.1,6.4C68.9,54.6,53.1,75,47.2,98.6L1.9,280.4
	c-1.2,5-1.9,10.2-1.9,15.5v70.2C0,428.1,51.6,480,115.3,480h37.1c60.2,0,110.4-46,114.9-105.4l2.9-38.6H306l2.9,38.6
	c4.5,58.5,54.6,105.4,114.8,105.4h37.1c63.6,0,115.2-51,115.2-113.9v-70.2C576,290.6,575.4,285.5,574.1,280.4z M203.4,369.7
	c-2,26-24.4,46.2-51,46.2h-37.2C87,415.1,64,393.6,64,366.1v-37.5c18.1-6.5,43.4-13,72.6-13c23.9,0,47.2,4.4,69.9,13L203.4,369.7z
	 M512,366.1c0,27.5-23,49.9-51.2,49.9h-37.1c-26.6,0-49-20.2-51-46.2l-3.1-41.1c22.6-8.6,46.1-13,70-13c29,0,54.4,6.5,72.5,13
	L512,366.1L512,366.1z"/>
</svg>
