<?xml version="1.0" encoding="utf-8"?>
<!-- Generator: Adobe Illustrator 26.0.2, SVG Export Plug-In . SVG Version: 6.00 Build 0)  -->
<svg version="1.1" id="Warstwa_1" xmlns="http://www.w3.org/2000/svg" xmlns:xlink="http://www.w3.org/1999/xlink" x="0px" y="0px"
	 viewBox="0 0 576 512" style="enable-background:new 0 0 576 512;" xml:space="preserve">
<style type="text/css">
	.st0{fill:#FFFFFF;}
</style>
<path class="st0" d="M252,208c0-11.9,8.1-20,20-20h16c11,0,20,8.1,20,20v68h4c11,0,20,8.1,20,20c0,11-9,20-20,20h-48
	c-11.9,0-20-9-20-20c0-11.9,8.1-20,20-20h4v-48.4C258.9,225.7,252,217.7,252,208z M512,64c35.3,0,64,28.7,64,64v256
	c0,35.3-28.7,64-64,64H64c-35.3,0-64-28.7-64-64V128c0-35.3,28.6-64,64-64H512z M128,384c0-35.3-28.7-64-64-64v64H128z M64,192
	c35.3,0,64-28.7,64-64H64V192z M512,384v-64c-35.3,0-64,28.7-64,64H512z M512,128h-64c0,35.3,28.7,64,64,64V128z M288,144
	c-61.9,0-112,50.1-112,112s50.1,112,112,112s112-50.1,112-112S349.9,144,288,144z"/>
</svg>
